<svg xmlns="http://www.w3.org/2000/svg" xmlns:xlink="http://www.w3.org/1999/xlink" width="450" zoomAndPan="magnify" viewBox="0 0 337.5 187.499995" height="250" preserveAspectRatio="xMidYMid meet" version="1.0"><defs><g/><clipPath id="de79c621d7"><path d="M 0.199219 0 L 336.800781 0 L 336.800781 187 L 0.199219 187 Z M 0.199219 0 " clip-rule="nonzero"/></clipPath><clipPath id="b34edc10d5"><path d="M 30 73 L 60 73 L 60 119.425781 L 30 119.425781 Z M 30 73 " clip-rule="nonzero"/></clipPath><clipPath id="3f2c4ca5bf"><path d="M 27 37.144531 L 40 37.144531 L 40 63 L 27 63 Z M 27 37.144531 " clip-rule="nonzero"/></clipPath></defs><g clip-path="url(#de79c621d7)"><path fill="#ffffff" d="M 0.199219 0 L 336.800781 0 L 336.800781 187 L 0.199219 187 Z M 0.199219 0 " fill-opacity="1" fill-rule="nonzero"/><path fill="#d21e46" d="M 0.199219 0 L 336.800781 0 L 336.800781 187 L 0.199219 187 Z M 0.199219 0 " fill-opacity="1" fill-rule="nonzero"/></g><g fill="#ffffff" fill-opacity="1"><g transform="translate(61.892519, 104.213405)"><g><path d="M 2.8125 -38.765625 L 14.84375 -38.765625 C 18.476562 -38.765625 21.375 -37.988281 23.53125 -36.4375 C 25.695312 -34.882812 26.78125 -32.367188 26.78125 -28.890625 C 26.78125 -25.003906 25.164062 -22.234375 21.9375 -20.578125 C 27.457031 -19.609375 30.21875 -16.351562 30.21875 -10.8125 C 30.21875 -7.550781 29.085938 -4.929688 26.828125 -2.953125 C 24.566406 -0.984375 21.46875 0 17.53125 0 L 2.8125 0 Z M 11.65625 -23.59375 L 12.359375 -23.59375 C 14.328125 -23.59375 15.796875 -23.9375 16.765625 -24.625 C 17.742188 -25.3125 18.234375 -26.4375 18.234375 -28 C 18.234375 -30.632812 16.273438 -31.953125 12.359375 -31.953125 L 11.65625 -31.953125 Z M 11.65625 -6.8125 L 14.421875 -6.8125 C 18.742188 -6.8125 20.90625 -8.253906 20.90625 -11.140625 C 20.90625 -12.859375 20.363281 -14.09375 19.28125 -14.84375 C 18.207031 -15.59375 16.585938 -15.96875 14.421875 -15.96875 L 11.65625 -15.96875 Z M 11.65625 -6.8125 "/></g></g></g><g fill="#ffffff" fill-opacity="1"><g transform="translate(89.983548, 104.213405)"><g><path d="M 27.203125 -10.90625 L 9.71875 -10.90625 C 9.71875 -9.207031 10.265625 -7.953125 11.359375 -7.140625 C 12.460938 -6.328125 13.65625 -5.921875 14.9375 -5.921875 C 16.289062 -5.921875 17.359375 -6.097656 18.140625 -6.453125 C 18.921875 -6.816406 19.8125 -7.53125 20.8125 -8.59375 L 26.828125 -5.59375 C 24.316406 -1.394531 20.148438 0.703125 14.328125 0.703125 C 10.691406 0.703125 7.570312 -0.539062 4.96875 -3.03125 C 2.375 -5.519531 1.078125 -8.519531 1.078125 -12.03125 C 1.078125 -15.539062 2.375 -18.546875 4.96875 -21.046875 C 7.570312 -23.554688 10.691406 -24.8125 14.328125 -24.8125 C 18.148438 -24.8125 21.257812 -23.707031 23.65625 -21.5 C 26.050781 -19.289062 27.25 -16.132812 27.25 -12.03125 C 27.25 -11.46875 27.234375 -11.09375 27.203125 -10.90625 Z M 9.953125 -15.5 L 19.125 -15.5 C 18.9375 -16.757812 18.441406 -17.722656 17.640625 -18.390625 C 16.835938 -19.066406 15.8125 -19.40625 14.5625 -19.40625 C 13.1875 -19.40625 12.085938 -19.046875 11.265625 -18.328125 C 10.453125 -17.609375 10.015625 -16.664062 9.953125 -15.5 Z M 9.953125 -15.5 "/></g></g></g><g fill="#ffffff" fill-opacity="1"><g transform="translate(115.115062, 104.213405)"><g><path d="M 4.453125 -2.984375 C 2.203125 -5.441406 1.078125 -8.457031 1.078125 -12.03125 C 1.078125 -15.601562 2.203125 -18.625 4.453125 -21.09375 C 6.710938 -23.570312 9.582031 -24.8125 13.0625 -24.8125 C 16.257812 -24.8125 18.890625 -23.804688 20.953125 -21.796875 L 20.953125 -24.109375 L 29.265625 -24.109375 L 29.265625 0 L 21.046875 0 L 21.046875 -2.71875 L 20.953125 -2.71875 C 18.890625 -0.4375 16.257812 0.703125 13.0625 0.703125 C 9.582031 0.703125 6.710938 -0.523438 4.453125 -2.984375 Z M 11.53125 -16.109375 C 10.445312 -15.046875 9.90625 -13.679688 9.90625 -12.015625 C 9.90625 -10.359375 10.421875 -9.003906 11.453125 -7.953125 C 12.492188 -6.910156 13.859375 -6.390625 15.546875 -6.390625 C 17.179688 -6.390625 18.519531 -6.921875 19.5625 -7.984375 C 20.613281 -9.046875 21.140625 -10.394531 21.140625 -12.03125 C 21.140625 -13.6875 20.597656 -15.046875 19.515625 -16.109375 C 18.441406 -17.179688 17.117188 -17.71875 15.546875 -17.71875 C 13.953125 -17.71875 12.613281 -17.179688 11.53125 -16.109375 Z M 11.53125 -16.109375 "/></g></g></g><g fill="#ffffff" fill-opacity="1"><g transform="translate(144.004688, 104.213405)"><g><path d="M 10.671875 -24.109375 L 10.671875 -12.640625 C 10.671875 -10.253906 11.03125 -8.5625 11.75 -7.5625 C 12.46875 -6.5625 13.6875 -6.0625 15.40625 -6.0625 C 17.132812 -6.0625 18.359375 -6.5625 19.078125 -7.5625 C 19.796875 -8.5625 20.15625 -10.253906 20.15625 -12.640625 L 20.15625 -24.109375 L 28.46875 -24.109375 L 28.46875 -10.625 C 28.46875 -6.613281 27.425781 -3.722656 25.34375 -1.953125 C 23.257812 -0.179688 19.945312 0.703125 15.40625 0.703125 C 10.863281 0.703125 7.550781 -0.179688 5.46875 -1.953125 C 3.382812 -3.722656 2.34375 -6.613281 2.34375 -10.625 L 2.34375 -24.109375 Z M 10.671875 -24.109375 "/></g></g></g><g fill="#ffffff" fill-opacity="1"><g transform="translate(171.625949, 104.213405)"><g><path d="M 4.234375 -24.109375 L 4.234375 -33.078125 L 12.546875 -33.078125 L 12.546875 -24.109375 L 17.625 -24.109375 L 17.625 -17.765625 L 12.546875 -17.765625 L 12.546875 -10.109375 C 12.546875 -7.878906 13.171875 -6.765625 14.421875 -6.765625 C 14.734375 -6.765625 15.0625 -6.828125 15.40625 -6.953125 C 15.75 -7.078125 16.015625 -7.203125 16.203125 -7.328125 L 16.484375 -7.515625 L 18.5625 -0.796875 C 16.769531 0.203125 14.734375 0.703125 12.453125 0.703125 C 10.890625 0.703125 9.539062 0.429688 8.40625 -0.109375 C 7.28125 -0.660156 6.425781 -1.398438 5.84375 -2.328125 C 5.269531 -3.253906 4.859375 -4.222656 4.609375 -5.234375 C 4.359375 -6.253906 4.234375 -7.34375 4.234375 -8.5 L 4.234375 -17.765625 L 0.75 -17.765625 L 0.75 -24.109375 Z M 4.234375 -24.109375 "/></g></g></g><g fill="#ffffff" fill-opacity="1"><g transform="translate(186.986374, 104.213405)"><g><path d="M 21.09375 -24.109375 L 30.6875 -24.109375 L 11.75 12.21875 L 2.15625 12.21875 L 10.484375 -3.765625 L -0.9375 -24.109375 L 8.640625 -24.109375 L 15.359375 -11.75 Z M 21.09375 -24.109375 "/></g></g></g><g fill="#ffffff" fill-opacity="1"><g transform="translate(213.527174, 104.213405)"><g><path d="M 11.65625 -38.765625 L 11.65625 -7.75 L 25 -7.75 L 25 0 L 2.8125 0 L 2.8125 -38.765625 Z M 11.65625 -38.765625 "/></g></g></g><g fill="#ffffff" fill-opacity="1"><g transform="translate(236.873586, 104.213405)"><g><path d="M 10.671875 -24.109375 L 10.671875 -12.640625 C 10.671875 -10.253906 11.03125 -8.5625 11.75 -7.5625 C 12.46875 -6.5625 13.6875 -6.0625 15.40625 -6.0625 C 17.132812 -6.0625 18.359375 -6.5625 19.078125 -7.5625 C 19.796875 -8.5625 20.15625 -10.253906 20.15625 -12.640625 L 20.15625 -24.109375 L 28.46875 -24.109375 L 28.46875 -10.625 C 28.46875 -6.613281 27.425781 -3.722656 25.34375 -1.953125 C 23.257812 -0.179688 19.945312 0.703125 15.40625 0.703125 C 10.863281 0.703125 7.550781 -0.179688 5.46875 -1.953125 C 3.382812 -3.722656 2.34375 -6.613281 2.34375 -10.625 L 2.34375 -24.109375 Z M 10.671875 -24.109375 "/></g></g></g><g fill="#ffffff" fill-opacity="1"><g transform="translate(264.494846, 104.213405)"><g><path d="M 30.734375 0 L 20.671875 0 L 15.359375 -6.8125 L 10.046875 0 L 0 0 L 10.296875 -12.59375 L 1.453125 -24.109375 L 11.1875 -24.109375 L 15.359375 -18.515625 L 19.546875 -24.109375 L 29.265625 -24.109375 L 20.4375 -12.59375 Z M 30.734375 0 "/></g></g></g><g fill="#ffffff" fill-opacity="1"><g transform="translate(292.022162, 104.213405)"><g><path d="M 27.203125 -10.90625 L 9.71875 -10.90625 C 9.71875 -9.207031 10.265625 -7.953125 11.359375 -7.140625 C 12.460938 -6.328125 13.65625 -5.921875 14.9375 -5.921875 C 16.289062 -5.921875 17.359375 -6.097656 18.140625 -6.453125 C 18.921875 -6.816406 19.8125 -7.53125 20.8125 -8.59375 L 26.828125 -5.59375 C 24.316406 -1.394531 20.148438 0.703125 14.328125 0.703125 C 10.691406 0.703125 7.570312 -0.539062 4.96875 -3.03125 C 2.375 -5.519531 1.078125 -8.519531 1.078125 -12.03125 C 1.078125 -15.539062 2.375 -18.546875 4.96875 -21.046875 C 7.570312 -23.554688 10.691406 -24.8125 14.328125 -24.8125 C 18.148438 -24.8125 21.257812 -23.707031 23.65625 -21.5 C 26.050781 -19.289062 27.25 -16.132812 27.25 -12.03125 C 27.25 -11.46875 27.234375 -11.09375 27.203125 -10.90625 Z M 9.953125 -15.5 L 19.125 -15.5 C 18.9375 -16.757812 18.441406 -17.722656 17.640625 -18.390625 C 16.835938 -19.066406 15.8125 -19.40625 14.5625 -19.40625 C 13.1875 -19.40625 12.085938 -19.046875 11.265625 -18.328125 C 10.453125 -17.609375 10.015625 -16.664062 9.953125 -15.5 Z M 9.953125 -15.5 "/></g></g></g><path fill="#ffffff" d="M 38.316406 57.273438 C 40.808594 53.75 46.871094 50.613281 48.261719 56.582031 C 43.710938 55.507812 38.316406 57.273438 38.316406 57.273438 Z M 38.316406 57.273438 " fill-opacity="1" fill-rule="nonzero"/><g clip-path="url(#b34edc10d5)"><path fill="#ffffff" d="M 30.464844 102.523438 C 31.867188 107.335938 40.617188 112.089844 42.660156 119.410156 C 45.082031 111.152344 35.519531 108.46875 51.957031 99.035156 C 56.628906 96.355469 59.101562 95.84375 56.371094 90.957031 C 53.839844 86.441406 56.191406 83.890625 57.820312 81.160156 C 59.550781 78.269531 59.585938 75.25 56.753906 73.007812 C 60.351562 78.304688 55.875 81.175781 53.96875 83.679688 C 51.726562 86.621094 54.410156 91.070312 53.855469 92.089844 C 53.289062 93.136719 50.804688 92.414062 49.792969 92.816406 C 48.960938 93.140625 49.367188 94.945312 49.519531 95.566406 C 48.972656 95.222656 47.539062 94.546875 47.175781 95.347656 C 47.046875 95.644531 46.996094 96.097656 47.296875 96.921875 C 43.382812 96.5625 44.675781 97.601562 43.9375 99.1875 C 43.40625 100.320312 42.3125 100.367188 41.21875 100.054688 C 38.359375 99.222656 34.546875 95.335938 31.449219 98.328125 C 30.417969 99.324219 30 100.90625 30.464844 102.523438 Z M 30.464844 102.523438 " fill-opacity="1" fill-rule="evenodd"/></g><path fill="#ffffff" d="M 28.535156 73.671875 C 28.535156 74.109375 28.890625 74.457031 29.320312 74.457031 C 29.757812 74.457031 30.105469 74.109375 30.105469 73.671875 C 30.105469 73.242188 29.757812 72.890625 29.320312 72.890625 C 28.890625 72.890625 28.535156 73.242188 28.535156 73.671875 Z M 22.878906 68.9375 C 23.492188 68.9375 24.800781 69.601562 26.351562 70.246094 C 26.328125 69.597656 26.011719 67.550781 26.59375 67.308594 C 27.292969 67.019531 27.351562 70.710938 27.296875 71.113281 C 27.285156 71.207031 27.398438 71.390625 27.519531 71.425781 C 28.324219 71.644531 27.808594 64.589844 27.582031 63.792969 C 27.03125 61.855469 25.148438 62.558594 24.5 63.566406 C 23.628906 63.078125 22.789062 62.894531 22.058594 62.949219 C 20.289062 63.070312 19.144531 64.570312 19.621094 66.417969 C 18.765625 66.660156 18.222656 66.917969 17.871094 67.207031 C 16.933594 67.96875 17.167969 68.914062 17.714844 69.738281 C 19.898438 73.035156 23.398438 68.789062 26.785156 72.972656 C 26.890625 73.101562 27.238281 73.433594 27.132812 72.941406 C 27.101562 72.824219 27.054688 72.675781 26.972656 72.5 C 26.582031 71.691406 25.457031 70.382812 22.566406 69.644531 C 22 69.171875 22.542969 68.9375 22.878906 68.9375 Z M 32.015625 62.890625 C 29.980469 63.183594 30.148438 65.914062 30.359375 68.304688 C 30.464844 69.550781 30.636719 70.226562 30.800781 71.574219 C 30.800781 71.574219 31.273438 70.09375 32.578125 67.507812 C 32.765625 67.132812 32.925781 66.511719 33.457031 66.683594 C 33.945312 66.835938 32.398438 68.816406 32.207031 69.515625 C 32.207031 69.515625 32.015625 70.152344 32.277344 70.222656 C 32.582031 70.304688 34.472656 68.515625 35.503906 68.203125 C 35.859375 68.097656 36.195312 68.0625 36.246094 68.304688 C 36.398438 69.046875 32.648438 71.054688 31.859375 72.511719 C 35.882812 69.769531 37.839844 70.371094 39.667969 69.878906 C 42.558594 69.113281 39.367188 66.179688 38.183594 65.277344 C 38.421875 61.03125 34.171875 62.09375 34.253906 63.808594 C 33.578125 62.953125 32.71875 62.789062 32.015625 62.890625 Z M 36.070312 78.203125 C 35.480469 77.539062 33.945312 76.007812 31.414062 75.3125 C 31.089844 75.160156 35.226562 77.347656 35.878906 81.761719 C 35.878906 81.761719 38.152344 84.445312 40.082031 79.515625 C 43.308594 79.539062 43.53125 76.59375 41.585938 75.3125 C 42.511719 68.8125 34.675781 71.382812 31.867188 73.828125 C 32.84375 73.53125 36.683594 72.003906 37.125 72.570312 C 37.363281 72.871094 37.261719 73.445312 34.628906 74.214844 C 35.652344 74.453125 38.492188 74.765625 38.867188 75.5625 C 39.636719 77.226562 35.273438 75.492188 34.859375 75.355469 C 35.433594 75.910156 37.035156 77.164062 37.085938 77.816406 C 37.160156 78.746094 36.234375 78.394531 36.070312 78.203125 Z M 34.84375 80.902344 C 34.570312 78.949219 31.792969 75.65625 29.875 75.449219 C 32.132812 77.253906 32.53125 78.769531 32.132812 79.183594 C 31.898438 79.429688 30.648438 78.121094 30.222656 77.613281 C 30.121094 77.492188 29.898438 80.859375 29.898438 81.890625 C 29.898438 81.945312 29.863281 82.464844 29.6875 82.640625 C 29.46875 82.859375 29.171875 82.683594 29.0625 82.109375 C 28.488281 79.230469 28.375 78.257812 28.613281 77.25 C 28.082031 77.738281 26.414062 80.851562 25.980469 80.605469 C 25.851562 80.535156 25.746094 80.363281 25.722656 80.09375 C 25.652344 79.066406 26.996094 76.46875 27.644531 75.574219 C 24.359375 77.554688 21.203125 84.152344 26.195312 84.257812 C 26.714844 88.15625 30.035156 88.074219 31.863281 83.597656 C 33.289062 85.265625 35.15625 83.128906 34.84375 80.902344 Z M 20.972656 81.945312 C 23.65625 79.753906 22.582031 77.25 27.292969 75.226562 C 25.484375 75.65625 24.269531 76.386719 23.527344 76.984375 C 23.121094 77.308594 22.582031 78.210938 22.113281 77.890625 C 20.921875 77.070312 23.816406 75.203125 24.9375 74.792969 C 24.164062 74.765625 21.863281 74.996094 21.269531 74.628906 C 19.792969 73.71875 23.285156 73.242188 23.757812 73.226562 C 24.996094 73.171875 26.164062 73.492188 26.175781 73.492188 C 24.128906 71.542969 21.644531 71.722656 19.328125 72.546875 C 17.433594 73.21875 16.03125 74.589844 16.914062 76.550781 C 14.257812 77.671875 14.9375 80.492188 17.90625 80.226562 C 18.128906 81.914062 19.628906 83.042969 20.972656 81.945312 Z M 20.972656 81.945312 " fill-opacity="1" fill-rule="evenodd"/><path fill="#ffffff" d="M 19.410156 99.621094 C 10.597656 91.476562 11.398438 80.109375 16.808594 70.523438 C 16.777344 70.480469 16.75 70.441406 16.71875 70.394531 C 16.4375 69.960938 16.230469 69.515625 16.125 69.066406 C 14.535156 71.734375 13.199219 74.601562 12.390625 77.714844 C 10.230469 86.027344 12.230469 94.328125 19.410156 99.621094 Z M 19.410156 99.621094 " fill-opacity="1" fill-rule="evenodd"/><path fill="#ffffff" d="M 21.097656 61.910156 C 21.375 61.828125 21.667969 61.78125 21.976562 61.757812 C 22.199219 61.738281 22.425781 61.738281 22.648438 61.757812 C 27.125 55.53125 31.109375 50.011719 29.679688 45.042969 C 30.605469 50.339844 25.929688 55.617188 21.097656 61.910156 Z M 21.097656 61.910156 " fill-opacity="1" fill-rule="evenodd"/><g clip-path="url(#3f2c4ca5bf)"><path fill="#ffffff" d="M 39.4375 37.144531 C 40.480469 49.46875 33.738281 54.59375 27.273438 61.609375 C 27.65625 61.792969 28 62.082031 28.265625 62.464844 C 34.949219 55.34375 41.75 50.230469 39.4375 37.144531 Z M 39.4375 37.144531 " fill-opacity="1" fill-rule="evenodd"/></g><path fill="#ffffff" d="M 20.425781 97.199219 C 16.960938 92.699219 16.289062 87.367188 17.316406 82.050781 C 17.1875 81.84375 17.078125 81.625 16.992188 81.402344 C 16.785156 81.378906 16.582031 81.34375 16.390625 81.296875 C 15.390625 86.804688 16.28125 92.386719 20.425781 97.199219 Z M 20.425781 97.199219 " fill-opacity="1" fill-rule="evenodd"/><path fill="#ffffff" d="M 22.71875 83.53125 C 21.898438 87.867188 21.988281 93.089844 23.355469 99.246094 C 22.21875 93.417969 22.277344 88.421875 23.183594 84.257812 C 23.078125 84.140625 22.984375 84.003906 22.894531 83.863281 C 22.832031 83.753906 22.773438 83.644531 22.71875 83.53125 Z M 22.71875 83.53125 " fill-opacity="1" fill-rule="evenodd"/><path fill="#ffffff" d="M 28.175781 88.257812 C 25.457031 93.402344 24.824219 98.316406 24.914062 99.65625 C 25.546875 95.246094 26.871094 91.453125 28.726562 88.25 C 28.542969 88.269531 28.359375 88.273438 28.175781 88.257812 Z M 28.175781 88.257812 " fill-opacity="1" fill-rule="evenodd"/><path fill="#ffffff" d="M 43.734375 76.074219 C 46.265625 75.203125 48.914062 74.660156 51.589844 74.429688 C 48.582031 74.515625 45.902344 74.949219 43.515625 75.644531 C 43.597656 75.78125 43.667969 75.925781 43.734375 76.074219 Z M 43.734375 76.074219 " fill-opacity="1" fill-rule="evenodd"/><path fill="#ffffff" d="M 42.003906 68.324219 C 46.28125 68.515625 50.421875 70.324219 53.449219 73.707031 C 51.277344 69.179688 46.480469 66.742188 41.273438 66.710938 C 41.621094 67.203125 41.902344 67.75 42.003906 68.324219 Z M 42.003906 68.324219 " fill-opacity="1" fill-rule="evenodd"/><path fill="#ffffff" d="M 39.15625 63.398438 C 42.976562 62.808594 47.496094 63.179688 52.710938 65.296875 C 47.976562 60.417969 42.097656 59.304688 36.636719 61.144531 C 38.011719 61.339844 38.800781 62.253906 39.15625 63.398438 Z M 39.15625 63.398438 " fill-opacity="1" fill-rule="evenodd"/></svg>