<?xml version="1.0" standalone="no"?>
<!DOCTYPE svg PUBLIC "-//W3C//DTD SVG 20010904//EN"
 "http://www.w3.org/TR/2001/REC-SVG-20010904/DTD/svg10.dtd">
<svg version="1.0" xmlns="http://www.w3.org/2000/svg"
 width="920.000000pt" height="893.000000pt" viewBox="0 0 920.000000 893.000000"
 preserveAspectRatio="xMidYMid meet">
<metadata>
Created by potrace 1.16, written by Peter Selinger 2001-2019
</metadata>
<g transform="translate(0.000000,893.000000) scale(0.100000,-0.100000)"
fill="#000000" stroke="none">
<path d="M7824 8902 c-141 -49 -234 -179 -234 -326 0 -171 100 -326 261 -405
l78 -37 -102 -33 c-56 -17 -151 -50 -212 -71 -203 -73 -343 -41 -410 93 -45
91 -26 168 54 218 63 40 128 40 173 0 27 -24 32 -36 32 -72 0 -24 -3 -53 -8
-64 -7 -17 -5 -17 13 3 52 59 30 164 -43 207 -105 62 -256 10 -319 -110 -29
-55 -28 -142 3 -213 28 -64 112 -144 172 -164 l42 -14 -85 -39 c-720 -331
-1290 -806 -1694 -1410 -268 -401 -417 -793 -465 -1225 -15 -132 -15 -445 -1
-570 55 -472 231 -908 545 -1352 36 -51 104 -147 151 -213 95 -134 187 -309
210 -401 8 -33 19 -94 25 -135 l9 -74 -4 91 c-8 173 -82 344 -276 639 -124
187 -177 275 -246 405 -399 743 -415 1602 -44 2335 56 108 240 400 248 392 2
-3 -12 -42 -31 -88 -170 -413 -257 -924 -228 -1350 11 -159 31 -343 38 -336 2
1 -2 76 -8 167 -52 748 223 1583 696 2113 165 186 525 441 852 605 140 70 438
192 470 192 5 0 -30 -39 -77 -87 -169 -172 -289 -342 -395 -558 -90 -183 -143
-345 -174 -527 -10 -58 -17 -72 -48 -99 -31 -28 -40 -31 -84 -27 -85 9 -198
81 -332 214 l-70 69 35 -65 c64 -122 232 -275 396 -360 71 -36 79 -54 71 -159
-7 -93 -55 -180 -157 -282 -108 -107 -221 -178 -446 -279 -217 -97 -297 -142
-362 -203 -139 -131 -95 -242 142 -359 239 -118 335 -253 262 -369 -12 -20
-77 -87 -144 -148 -107 -98 -123 -116 -131 -154 -10 -50 0 -101 26 -136 22
-31 104 -78 150 -87 18 -3 34 -9 36 -13 2 -3 -25 -27 -61 -51 -77 -53 -103
-94 -103 -165 0 -79 33 -123 125 -170 58 -29 88 -91 82 -170 -4 -51 -16 -83
-83 -213 l-79 -152 0 -103 c0 -87 3 -108 22 -144 109 -202 420 -241 943 -118
287 68 539 44 775 -73 300 -148 504 -404 586 -733 21 -85 24 -116 24 -329 0
-204 -3 -250 -22 -345 -60 -295 -165 -503 -315 -624 -236 -192 -529 -199 -614
-17 -13 28 -24 69 -24 92 0 145 137 279 285 279 77 0 122 -25 154 -85 19 -37
22 -40 17 -15 -10 45 -37 77 -87 103 -37 20 -55 23 -114 19 -86 -5 -148 -31
-210 -88 -73 -67 -100 -127 -100 -224 0 -64 5 -89 24 -128 58 -118 167 -177
326 -177 44 0 97 4 117 9 49 11 42 1 -29 -41 -127 -75 -236 -109 -352 -110
-100 0 -132 7 -204 45 -168 89 -276 307 -264 537 10 203 100 320 258 337 49 5
58 8 39 14 -120 34 -265 -30 -339 -152 -178 -288 -81 -738 199 -924 105 -70
191 -97 327 -103 223 -10 401 43 614 182 304 200 532 536 639 940 49 188 64
317 64 546 -1 483 -103 912 -419 1770 -109 296 -227 655 -274 836 l-11 41 -59
-29 c-79 -38 -159 -52 -254 -44 -196 14 -327 147 -315 317 7 97 60 150 155
156 45 3 65 0 89 -16 43 -27 83 -81 89 -122 l6 -34 -15 38 c-18 49 -52 86 -93
103 -44 19 -69 18 -119 -6 -70 -34 -91 -107 -58 -203 42 -123 189 -187 350
-153 99 20 148 48 224 125 47 47 77 91 107 151 70 143 75 171 80 480 3 166 1
271 -4 265 -5 -5 -40 -50 -77 -98 -194 -252 -455 -380 -740 -364 -56 3 -128
13 -161 22 -249 65 -405 265 -393 499 3 66 10 92 34 136 85 160 307 186 440
53 63 -63 111 -196 85 -240 -8 -14 -10 -8 -11 32 -1 94 -76 203 -166 241 -72
30 -191 9 -247 -44 -95 -90 -93 -266 6 -404 61 -86 145 -136 270 -162 235 -49
461 26 638 210 124 130 226 317 273 497 42 163 49 304 42 792 -7 487 1 661 39
869 67 362 199 569 480 752 82 53 227 129 325 170 l55 23 -70 1 c-133 0 -445
-41 -730 -96 -141 -28 -230 -27 -341 2 -182 47 -294 176 -294 337 0 76 26 126
88 174 107 81 263 68 313 -27 26 -47 25 -125 -1 -168 -20 -32 -20 -33 -1 -22
51 27 86 122 72 196 -15 80 -73 142 -160 172 -50 18 -168 14 -227 -6z"/>
<path d="M4788 6868 c13 -243 -115 -397 -373 -453 -96 -21 -184 -65 -227 -114
-40 -45 -85 -142 -98 -210 -17 -90 -12 -279 10 -393 11 -57 20 -106 20 -109 0
-3 -53 -8 -118 -11 -103 -4 -125 -9 -173 -32 -73 -37 -140 -105 -172 -174 -14
-31 -39 -86 -55 -122 -37 -83 -81 -134 -150 -173 -52 -29 -54 -31 -31 -40 13
-5 71 -7 129 -4 84 3 124 11 200 37 104 35 266 116 362 181 33 23 58 37 55 32
-9 -14 -166 -121 -253 -174 -79 -46 -55 -46 66 2 254 101 536 332 702 577 49
73 133 231 126 238 -2 2 -27 -29 -56 -69 -28 -40 -77 -99 -107 -132 l-55 -60
56 80 c119 170 194 323 242 494 24 86 27 113 27 251 -1 147 -3 160 -33 250
-18 52 -47 121 -65 153 l-33 58 4 -83z"/>
<path d="M709 4725 c-225 -36 -448 -98 -510 -141 -75 -52 -195 -234 -187 -286
2 -18 10 -24 37 -26 54 -5 316 70 346 99 6 6 -3 14 -23 21 -18 7 -32 15 -32
19 0 19 185 72 342 100 209 36 377 22 435 -36 85 -85 8 -183 -192 -244 -63
-20 -274 -61 -311 -61 -8 0 32 52 88 115 57 64 105 120 106 125 6 15 -48 11
-100 -8 -69 -25 -157 -93 -235 -182 l-68 -77 -100 -12 c-55 -7 -117 -17 -138
-22 -99 -26 -52 -129 59 -129 19 0 34 -2 34 -4 0 -3 -27 -40 -60 -84 -134
-179 -176 -302 -131 -389 43 -86 134 -126 291 -127 122 0 208 18 347 75 290
117 401 298 261 424 -67 61 -186 102 -386 134 l-102 16 27 31 c25 28 37 32
123 44 351 46 608 180 655 344 34 118 -22 215 -157 268 -68 27 -289 34 -419
13z m-101 -801 c190 -38 252 -70 252 -130 0 -112 -300 -240 -476 -204 -62 13
-118 55 -128 96 -10 37 22 98 95 186 76 91 72 90 257 52z"/>
<path d="M3892 4412 c-38 -12 -89 -60 -124 -117 l-33 -55 -65 0 c-124 0 -171
-27 -235 -134 -42 -71 -46 -101 -12 -92 49 13 157 19 157 8 0 -17 -141 -201
-202 -263 -68 -70 -167 -144 -213 -159 -71 -24 -96 28 -55 117 10 23 62 106
115 184 94 138 96 143 93 193 -3 50 -4 51 -35 54 -28 3 -41 -5 -89 -50 -31
-29 -90 -95 -131 -145 -90 -113 -335 -333 -370 -333 -25 0 -34 41 -21 91 11
38 25 57 86 108 80 69 165 167 190 218 21 45 9 53 -80 53 l-66 0 -57 -62
c-100 -110 -173 -215 -192 -274 -15 -47 -26 -63 -68 -94 -68 -51 -108 -70
-148 -70 -45 0 -67 26 -67 78 0 34 11 57 63 134 35 51 66 101 70 110 3 10 -4
41 -16 70 -15 37 -18 53 -9 56 6 2 21 11 33 20 18 15 19 21 9 47 -18 48 -39
65 -80 65 -88 0 -265 -80 -397 -179 -109 -82 -220 -201 -228 -243 -5 -26 -21
-46 -68 -83 -133 -106 -245 -152 -303 -123 -36 17 -61 54 -69 100 l-7 36 114
56 c212 104 318 209 318 317 0 57 -22 79 -84 86 -100 12 -247 -68 -373 -200
-39 -41 -83 -100 -99 -133 -27 -54 -29 -68 -29 -169 0 -94 3 -116 22 -151 44
-82 105 -112 204 -101 79 10 163 61 268 165 51 50 95 92 97 92 2 0 4 -9 4 -20
0 -37 40 -127 76 -168 64 -75 98 -59 273 126 l121 127 -19 -50 c-42 -112 -48
-226 -14 -260 8 -8 30 -15 49 -15 61 0 125 42 260 172 l81 78 16 -60 c19 -67
65 -125 107 -135 53 -12 155 85 337 321 15 19 7 -6 -24 -76 -58 -133 -69 -217
-33 -255 60 -64 153 -11 409 234 36 33 66 60 67 58 2 -2 -10 -41 -26 -87 -48
-138 -37 -232 30 -260 66 -27 181 36 339 187 45 44 84 75 86 69 36 -122 75
-193 110 -202 35 -9 88 25 228 145 64 56 119 101 121 101 2 0 -45 -82 -106
-182 -130 -217 -218 -389 -218 -426 1 -37 36 -112 53 -112 7 0 58 59 113 132
112 150 277 349 401 485 72 79 84 97 81 122 l-3 30 -55 -45 c-30 -26 -117
-104 -192 -176 -76 -71 -138 -128 -138 -125 0 15 109 197 220 367 70 107 132
205 139 217 26 51 4 133 -35 133 -17 0 -45 -26 -104 -95 -177 -207 -431 -405
-480 -375 -12 8 -12 16 -2 56 9 35 25 57 61 90 140 126 231 238 231 285 0 37
-36 79 -67 79 -65 0 -260 -206 -331 -349 -28 -57 -49 -85 -92 -118 -132 -106
-210 -129 -238 -70 -26 53 25 203 121 362 l37 60 72 0 71 0 64 94 c35 51 63
100 63 107 0 10 -14 14 -45 14 -25 0 -45 4 -45 9 0 5 22 37 50 72 27 35 50 71
50 80 0 24 -41 34 -88 21z m-2327 -392 c12 -20 -37 -99 -94 -152 -50 -47 -177
-126 -186 -116 -1 1 6 27 17 57 41 108 232 261 263 211z m724 -42 c-111 -161
-236 -300 -324 -363 -80 -56 -99 -62 -119 -33 -48 68 6 169 136 257 43 28 313
171 324 171 3 0 -5 -15 -17 -32z"/>
<path d="M3382 2254 c-196 -27 -395 -108 -471 -192 -84 -93 -133 -304 -85
-368 42 -57 193 -119 389 -159 144 -30 238 -72 296 -132 l44 -44 -30 -25
c-118 -97 -326 -139 -655 -132 -188 3 -225 14 -151 44 80 32 36 46 -56 19 -98
-29 -174 -166 -128 -231 83 -120 663 -109 933 18 72 34 150 107 181 171 58
119 29 222 -84 302 -106 76 -201 115 -494 201 -106 32 -124 50 -101 103 44
107 352 201 655 201 90 0 97 -13 28 -50 -57 -30 -123 -87 -123 -106 0 -20 6
-18 64 18 28 17 100 52 160 77 103 43 111 49 133 91 18 35 23 57 21 99 -3 49
-6 57 -34 73 -65 38 -297 48 -492 22z"/>
<path d="M5150 2242 c-175 -112 -431 -551 -479 -825 -11 -63 -20 -73 -104
-128 -59 -39 -135 -51 -157 -25 -7 10 -13 37 -13 62 0 39 9 58 66 142 37 54
67 107 67 117 0 11 -9 40 -20 64 -11 24 -19 45 -18 45 2 1 15 7 31 14 18 8 27
19 27 35 0 22 -24 65 -44 79 -34 24 -181 -16 -296 -79 -154 -86 -315 -226
-356 -309 -24 -49 -26 -63 -21 -124 9 -113 83 -240 139 -240 41 0 110 54 219
174 57 63 105 113 106 113 1 -1 -9 -40 -23 -86 -28 -98 -31 -176 -8 -210 15
-20 23 -23 66 -19 62 6 132 54 244 164 l82 82 11 -59 c15 -86 44 -145 83 -169
76 -46 147 -15 285 125 l101 103 11 -42 c15 -58 62 -129 105 -155 77 -48 163
-23 264 75 45 43 63 54 89 54 42 0 96 22 136 56 l31 26 12 -60 c17 -84 41
-131 71 -138 30 -8 48 8 126 111 33 44 81 103 106 130 54 60 182 175 194 175
5 0 -4 -21 -19 -47 -86 -145 -134 -242 -140 -281 -8 -55 10 -118 38 -133 54
-29 126 12 278 157 81 78 99 100 102 129 2 19 2 35 0 35 -2 0 -32 -23 -67 -50
-78 -62 -142 -92 -167 -79 -46 25 -5 120 108 253 41 50 80 98 86 109 11 22 3
78 -19 120 -13 25 -19 28 -45 23 -70 -14 -269 -184 -435 -370 -60 -68 -83 -77
-83 -32 0 30 45 99 123 188 85 98 94 114 71 139 -23 25 -77 25 -119 -1 -52
-32 -205 -243 -205 -283 0 -18 -74 -75 -108 -84 -41 -10 -47 10 -19 69 73 155
76 277 7 300 -10 3 -10 9 -1 26 15 29 0 59 -35 68 -50 13 -140 -1 -200 -32
-88 -43 -211 -170 -257 -263 -21 -40 -37 -81 -37 -90 0 -15 -70 -83 -158 -153
-87 -70 -172 -10 -172 121 0 60 1 61 63 133 158 184 228 285 299 435 58 120
87 242 72 301 -12 48 -35 51 -94 14z m-13 -209 c-13 -79 -98 -232 -206 -373
-75 -97 -85 -91 -46 27 57 170 189 383 237 383 18 0 20 -4 15 -37z m-762 -450
c-106 -141 -185 -231 -248 -281 -61 -49 -117 -82 -136 -82 -32 0 -43 97 -17
147 16 31 84 98 134 132 45 31 316 171 321 166 2 -3 -22 -39 -54 -82z m1163
-21 c-47 -96 -66 -183 -51 -246 l10 -44 -61 -36 c-64 -38 -98 -44 -141 -24
-33 15 -39 43 -25 115 15 74 49 133 103 177 48 39 188 135 198 136 4 0 -11
-35 -33 -78z"/>
</g>
</svg>
